# xmcd
#
# Track frame offsets:
#	150
#	12697
#	25285
#	37748
#	50194
#	63714
#	72946
#	87993
#	99789
#	113630
#
# Disc length: 1712 seconds
#
# Revision: 0
# Processed by: cddbd v1.5PL3 Copyright (c) Steve Scherf et al.
# Submitted via: dBpowerAMP V4.0
#
DISCID=8206ae0a
DTITLE=Tony Douglas - Tony's Best
DYEAR=1981
DGENRE=Country
TTITLE0=Thank You For Touching My Life
TTITLE1=My Last Day
TTITLE2=His And Hers
TTITLE3=If I Can Make It Through The Morning
TTITLE4=Her House
TTITLE5=Shrimpin'
TTITLE6=Angola Chains
TTITLE7=She Loves the Devil Out Of Me
TTITLE8=Love Her When She's Lonely
TTITLE9=Leanna
EXTD=
EXTT0=
EXTT1=
EXTT2=
EXTT3=
EXTT4=
EXTT5=
EXTT6=
EXTT7=
EXTT8=
EXTT9=
PLAYORDER=
